<mxfile host="Electron" agent="Mozilla/5.0 (Windows NT 10.0; Win64; x64) AppleWebKit/537.36 (KHTML, like Gecko) draw.io/26.2.15 Chrome/134.0.6998.205 Electron/35.2.1 Safari/537.36" version="26.2.15">
  <diagram name="舉報活動圖" id="05tKoZnrHdh6H-LKG138">
    <mxGraphModel dx="383" dy="581" grid="1" gridSize="10" guides="1" tooltips="1" connect="1" arrows="1" fold="1" page="1" pageScale="1" pageWidth="827" pageHeight="1169" math="0" shadow="0">
      <root>
        <mxCell id="0" />
        <mxCell id="1" parent="0" />
        <mxCell id="B1syGz-jZzUEDbPsqlCt-1" value="" style="ellipse;shape=startState;fillColor=#000000;strokeColor=#000000;" parent="1" vertex="1">
          <mxGeometry x="230" y="444" width="30" height="30" as="geometry" />
        </mxCell>
        <mxCell id="B1syGz-jZzUEDbPsqlCt-2" value="" style="edgeStyle=elbowEdgeStyle;elbow=horizontal;verticalAlign=bottom;endArrow=open;endSize=8;strokeColor=#000000;endFill=1;rounded=0;fillColor=#000000;" parent="1" source="B1syGz-jZzUEDbPsqlCt-1" edge="1">
          <mxGeometry x="100" y="40" as="geometry">
            <mxPoint x="245.64285714285734" y="514" as="targetPoint" />
          </mxGeometry>
        </mxCell>
        <mxCell id="B1syGz-jZzUEDbPsqlCt-3" value="" style="endArrow=open;strokeColor=#000000;endFill=1;rounded=0" parent="1" target="B1syGz-jZzUEDbPsqlCt-6" edge="1">
          <mxGeometry relative="1" as="geometry">
            <mxPoint x="245" y="556" as="sourcePoint" />
            <mxPoint x="244.75" y="616" as="targetPoint" />
          </mxGeometry>
        </mxCell>
        <mxCell id="B1syGz-jZzUEDbPsqlCt-4" value="使用者" style="swimlane;whiteSpace=wrap;startSize=30;fontSize=20;" parent="1" vertex="1">
          <mxGeometry x="130" y="410" width="270" height="680" as="geometry" />
        </mxCell>
        <mxCell id="B1syGz-jZzUEDbPsqlCt-5" value="" style="ellipse;html=1;shape=endState;fillColor=#000000;strokeColor=#000000;" parent="B1syGz-jZzUEDbPsqlCt-4" vertex="1">
          <mxGeometry x="110" y="580" width="30" height="30" as="geometry" />
        </mxCell>
        <mxCell id="B1syGz-jZzUEDbPsqlCt-6" value="點選社群頁面" style="fontSize=20;" parent="B1syGz-jZzUEDbPsqlCt-4" vertex="1">
          <mxGeometry x="45" y="105" width="140" height="50" as="geometry" />
        </mxCell>
        <mxCell id="B1syGz-jZzUEDbPsqlCt-7" style="edgeStyle=orthogonalEdgeStyle;rounded=0;orthogonalLoop=1;jettySize=auto;html=1;entryX=0.5;entryY=0;entryDx=0;entryDy=0;" parent="B1syGz-jZzUEDbPsqlCt-4" source="B1syGz-jZzUEDbPsqlCt-8" target="B1syGz-jZzUEDbPsqlCt-9" edge="1">
          <mxGeometry relative="1" as="geometry" />
        </mxCell>
        <mxCell id="B1syGz-jZzUEDbPsqlCt-8" value="點擊檢舉按鈕" style="fontSize=20;" parent="B1syGz-jZzUEDbPsqlCt-4" vertex="1">
          <mxGeometry x="24.380000000000003" y="200" width="181.25" height="50" as="geometry" />
        </mxCell>
        <mxCell id="B1syGz-jZzUEDbPsqlCt-9" value="輸入檢舉原因  " style="fontSize=20;" parent="B1syGz-jZzUEDbPsqlCt-4" vertex="1">
          <mxGeometry x="45" y="280" width="140" height="50" as="geometry" />
        </mxCell>
        <mxCell id="B1syGz-jZzUEDbPsqlCt-10" value="系統" style="swimlane;whiteSpace=wrap;startSize=30;fontSize=20;" parent="1" vertex="1">
          <mxGeometry x="400" y="410" width="420" height="680" as="geometry" />
        </mxCell>
        <mxCell id="B1syGz-jZzUEDbPsqlCt-11" style="edgeStyle=orthogonalEdgeStyle;rounded=0;orthogonalLoop=1;jettySize=auto;html=1;entryX=0.5;entryY=0;entryDx=0;entryDy=0;exitX=0;exitY=0.5;exitDx=0;exitDy=0;" parent="B1syGz-jZzUEDbPsqlCt-10" source="B1syGz-jZzUEDbPsqlCt-13" target="B1syGz-jZzUEDbPsqlCt-19" edge="1">
          <mxGeometry relative="1" as="geometry" />
        </mxCell>
        <mxCell id="B1syGz-jZzUEDbPsqlCt-12" style="edgeStyle=orthogonalEdgeStyle;rounded=0;orthogonalLoop=1;jettySize=auto;html=1;" parent="B1syGz-jZzUEDbPsqlCt-10" source="B1syGz-jZzUEDbPsqlCt-13" target="B1syGz-jZzUEDbPsqlCt-21" edge="1">
          <mxGeometry relative="1" as="geometry" />
        </mxCell>
        <mxCell id="B1syGz-jZzUEDbPsqlCt-13" value="&#xa;" style="rhombus;fillColor=#FFFFFF;strokeColor=#000000;" parent="B1syGz-jZzUEDbPsqlCt-10" vertex="1">
          <mxGeometry x="176.25" y="400" width="47.5" height="30" as="geometry" />
        </mxCell>
        <mxCell id="B1syGz-jZzUEDbPsqlCt-14" value="&lt;font style=&quot;font-size: 15px;&quot;&gt;[是]&lt;/font&gt;" style="whiteSpace=wrap;html=1;strokeColor=none;fillColor=none;" parent="B1syGz-jZzUEDbPsqlCt-10" vertex="1">
          <mxGeometry x="70" y="430" width="40" height="20" as="geometry" />
        </mxCell>
        <mxCell id="B1syGz-jZzUEDbPsqlCt-15" value="&lt;font style=&quot;font-size: 15px;&quot;&gt;[否]&lt;/font&gt;" style="whiteSpace=wrap;html=1;strokeColor=none;fillColor=none;" parent="B1syGz-jZzUEDbPsqlCt-10" vertex="1">
          <mxGeometry x="300" y="430" width="57.25" height="20" as="geometry" />
        </mxCell>
        <mxCell id="B1syGz-jZzUEDbPsqlCt-16" value="顯示貼文及留言" style="fontSize=20;" parent="B1syGz-jZzUEDbPsqlCt-10" vertex="1">
          <mxGeometry x="76.63" y="105" width="161.37" height="50" as="geometry" />
        </mxCell>
        <mxCell id="B1syGz-jZzUEDbPsqlCt-17" style="edgeStyle=orthogonalEdgeStyle;rounded=0;orthogonalLoop=1;jettySize=auto;html=1;entryX=0.5;entryY=0;entryDx=0;entryDy=0;" parent="B1syGz-jZzUEDbPsqlCt-10" source="B1syGz-jZzUEDbPsqlCt-18" target="B1syGz-jZzUEDbPsqlCt-13" edge="1">
          <mxGeometry relative="1" as="geometry" />
        </mxCell>
        <mxCell id="B1syGz-jZzUEDbPsqlCt-18" value="檢查輸入資料是否有問題" style="fontSize=20;" parent="B1syGz-jZzUEDbPsqlCt-10" vertex="1">
          <mxGeometry x="82.5" y="280" width="235" height="50" as="geometry" />
        </mxCell>
        <mxCell id="B1syGz-jZzUEDbPsqlCt-19" value="提示檢舉失敗" style="fontSize=20;" parent="B1syGz-jZzUEDbPsqlCt-10" vertex="1">
          <mxGeometry x="36.25" y="470" width="140" height="50" as="geometry" />
        </mxCell>
        <mxCell id="B1syGz-jZzUEDbPsqlCt-20" style="edgeStyle=orthogonalEdgeStyle;rounded=0;orthogonalLoop=1;jettySize=auto;html=1;" parent="B1syGz-jZzUEDbPsqlCt-10" source="B1syGz-jZzUEDbPsqlCt-21" target="B1syGz-jZzUEDbPsqlCt-22" edge="1">
          <mxGeometry relative="1" as="geometry" />
        </mxCell>
        <mxCell id="B1syGz-jZzUEDbPsqlCt-21" value="儲存檢舉內容" style="fontSize=20;" parent="B1syGz-jZzUEDbPsqlCt-10" vertex="1">
          <mxGeometry x="240" y="470" width="132.5" height="50" as="geometry" />
        </mxCell>
        <mxCell id="B1syGz-jZzUEDbPsqlCt-22" value="顯示檢舉成功" style="fontSize=20;" parent="B1syGz-jZzUEDbPsqlCt-10" vertex="1">
          <mxGeometry x="228.75" y="570" width="155" height="50" as="geometry" />
        </mxCell>
        <mxCell id="B1syGz-jZzUEDbPsqlCt-23" style="edgeStyle=orthogonalEdgeStyle;rounded=0;orthogonalLoop=1;jettySize=auto;html=1;entryX=0;entryY=0.5;entryDx=0;entryDy=0;" parent="1" source="B1syGz-jZzUEDbPsqlCt-6" target="B1syGz-jZzUEDbPsqlCt-16" edge="1">
          <mxGeometry relative="1" as="geometry" />
        </mxCell>
        <mxCell id="B1syGz-jZzUEDbPsqlCt-24" style="edgeStyle=orthogonalEdgeStyle;rounded=0;orthogonalLoop=1;jettySize=auto;html=1;entryX=0.5;entryY=0;entryDx=0;entryDy=0;" parent="1" source="B1syGz-jZzUEDbPsqlCt-16" target="B1syGz-jZzUEDbPsqlCt-8" edge="1">
          <mxGeometry relative="1" as="geometry">
            <Array as="points">
              <mxPoint x="558" y="580" />
              <mxPoint x="245" y="580" />
            </Array>
          </mxGeometry>
        </mxCell>
        <mxCell id="B1syGz-jZzUEDbPsqlCt-25" style="edgeStyle=orthogonalEdgeStyle;rounded=0;orthogonalLoop=1;jettySize=auto;html=1;" parent="1" source="B1syGz-jZzUEDbPsqlCt-9" target="B1syGz-jZzUEDbPsqlCt-18" edge="1">
          <mxGeometry relative="1" as="geometry" />
        </mxCell>
        <mxCell id="B1syGz-jZzUEDbPsqlCt-26" style="edgeStyle=orthogonalEdgeStyle;rounded=0;orthogonalLoop=1;jettySize=auto;html=1;" parent="1" source="B1syGz-jZzUEDbPsqlCt-19" target="B1syGz-jZzUEDbPsqlCt-9" edge="1">
          <mxGeometry relative="1" as="geometry" />
        </mxCell>
        <mxCell id="B1syGz-jZzUEDbPsqlCt-27" style="edgeStyle=orthogonalEdgeStyle;rounded=0;orthogonalLoop=1;jettySize=auto;html=1;entryX=1;entryY=0.5;entryDx=0;entryDy=0;" parent="1" source="B1syGz-jZzUEDbPsqlCt-22" target="B1syGz-jZzUEDbPsqlCt-5" edge="1">
          <mxGeometry relative="1" as="geometry" />
        </mxCell>
      </root>
    </mxGraphModel>
  </diagram>
</mxfile>
